<?xml version="1.0" encoding="UTF-8"?>
<svg width="11px" height="12px" viewBox="0 0 11 12" version="1.1" xmlns="http://www.w3.org/2000/svg" xmlns:xlink="http://www.w3.org/1999/xlink">
    <!-- Generator: Sketch 50 (54983) - http://www.bohemiancoding.com/sketch -->
    <title>pencil copy 17</title>
    <desc>Created with Sketch.</desc>
    <defs></defs>
    <g id="Page-1" stroke="none" stroke-width="1" fill="none" fill-rule="evenodd">
        <g id="pencil-copy-17" transform="translate(0.000000, 0.211418)" fill="#000000" fill-rule="nonzero">
            <path d="M10.917555,2.17110826 L8.8261301,0.0824471493 C8.71620346,-0.0274823831 8.53862964,-0.0274823831 8.428703,0.0824471493 L6.65578349,1.85259449 L1.15945118,7.33779628 C1.11999033,7.37162076 1.09180401,7.41390135 1.07489222,7.46181935 L0.0150866011,10.6272261 C-0.0356487741,10.7737988 0.0460915527,10.9344651 0.192660414,10.9852018 C0.251851686,11.0049327 0.313861589,11.0049327 0.370234228,10.9852018 L3.53837655,9.92536835 C3.58629329,9.90845612 3.62857277,9.88026906 3.66239635,9.84080717 L9.14745415,4.34433056 L10.917555,2.5685458 C11.0274817,2.45861627 11.0274817,2.2810378 10.917555,2.17110826 Z M0.728200487,10.2720692 L1.46386343,8.07347854 L2.92673341,9.53638693 L0.728200487,10.2720692 Z M3.44818033,9.25733504 L1.74290799,7.55201794 L6.85308773,2.45016015 L8.54990417,4.14702114 L3.44818033,9.25733504 Z M8.94733128,3.7495836 L7.25333347,2.05272261 L8.62882587,0.680012812 L10.320005,2.37123639 L8.94733128,3.7495836 Z" id="Shape"></path>
        </g>
    </g>
</svg>