<?xml version="1.0" encoding="UTF-8"?>
<svg width="17px" height="17px" viewBox="0 0 17 17" version="1.1" xmlns="http://www.w3.org/2000/svg" xmlns:xlink="http://www.w3.org/1999/xlink">
    <!-- Generator: Sketch 52.6 (67491) - http://www.bohemiancoding.com/sketch -->
    <title>mail-sent copy 19</title>
    <desc>Created with Sketch.</desc>
    <g id="Team-" stroke="none" stroke-width="1" fill="none" fill-rule="evenodd">
        <g id="New-Saved-Filters-design-1" transform="translate(-1200.000000, -218.000000)" fill="#000000" fill-rule="nonzero">
            <g id="mail-sent-copy-19" transform="translate(1201.000000, 219.000000)">
                <path d="M14.6000754,4.84917419 L10.150856,0.399973128 C9.61755633,-0.133324376 8.75002542,-0.133324376 8.21681838,0.399973128 L0.399928444,8.21673821 C-0.133309481,8.75003571 -0.133309481,9.61756305 0.399928444,10.1507988 L4.84914783,14.6000616 C5.38244753,15.1332973 6.25000933,15.1333282 6.78321637,14.6000616 L14.6000445,6.78326565 C15.1333442,6.24996815 15.1332825,5.38240992 14.6000754,4.84917419 Z M5.66923589,14.0601543 C5.60548455,14.0383171 5.54472928,14.0062562 5.49379616,13.9553542 L1.04457677,9.50618399 C1.04337217,9.50491762 1.04309418,9.50334238 1.04179692,9.50204512 L5.66923589,9.50204512 L5.66923589,14.0601543 Z M1.31582883,8.59028738 L8.59049264,1.31568442 L8.59049264,8.39146681 C8.59043086,8.49784215 8.49789259,8.59044182 8.39148592,8.59044182 L1.31582883,8.59028738 Z M6.58084294,13.5130811 L6.58084294,9.502076 L8.3915477,9.502076 C8.68834353,9.502076 8.96728651,9.38652718 9.17691845,9.1768961 C9.38658128,8.96723414 9.5020688,8.68835408 9.50209969,8.39149769 L9.50209969,6.58083128 L13.512936,6.58098572 L6.58084294,13.5130811 Z M9.5020688,5.6691971 L9.5020688,1.04180807 C9.50330429,1.04307444 9.50494132,1.04335243 9.5062077,1.0446188 L13.9554271,5.49381987 C14.0062675,5.544691 14.0383594,5.60541513 14.0600732,5.66935153 L9.5020688,5.6691971 Z" id="Shape" stroke="#FFFFFF" stroke-width="0.3"></path>
                <path d="M0.435991341,2.04545455 L5.01855411,2.04545455 C5.25930283,2.04545455 5.45454545,1.8928331 5.45454545,1.70455731 C5.45454545,1.51628152 5.25933314,1.36363636 5.01855411,1.36363636 L0.435991341,1.36363636 C0.195181994,1.36363636 0,1.51625781 0,1.70455731 C1.68031187e-17,1.8928331 0.195181994,2.04545455 0.435991341,2.04545455 Z" id="Shape"></path>
                <path d="M0.476193805,3.40909091 L3.6147484,3.40909091 C3.8777295,3.40909091 4.09090909,3.25646946 4.09090909,3.06816997 C4.09090909,2.87991788 3.8777295,2.72727273 3.6147484,2.72727273 L0.476193805,2.72727273 C0.213179592,2.72727273 0,2.87989417 0,3.06816997 C1.83525228e-17,3.25646946 0.213179592,3.40909091 0.476193805,3.40909091 Z" id="Shape"></path>
                <path d="M0.435986495,5.45454545 L2.29128623,5.45454545 C2.53203227,5.45454545 2.72727273,5.30192931 2.72727273,5.11363636 C2.72727273,4.92534341 2.53206259,4.77272727 2.29128623,4.77272727 L0.435986495,4.77272727 C0.195179824,4.77272727 0,4.92536712 0,5.11363636 C0,5.30190561 0.195179824,5.45454545 0.435986495,5.45454545 Z" id="Shape"></path>
                <path d="M2.29128623,13.6363636 L0.435986495,13.6363636 C0.195179824,13.6363636 0,13.7890035 0,13.9772727 C0,14.165542 0.195179824,14.3181818 0.435986495,14.3181818 L2.29128623,14.3181818 C2.53203227,14.3181818 2.72727273,14.1655657 2.72727273,13.9772727 C2.72727273,13.7890035 2.53206259,13.6363636 2.29128623,13.6363636 Z" id="Shape"></path>
            </g>
        </g>
    </g>
</svg>