<?xml version="1.0" encoding="UTF-8"?>
<svg width="18px" height="19px" viewBox="0 0 18 19" version="1.1" xmlns="http://www.w3.org/2000/svg" xmlns:xlink="http://www.w3.org/1999/xlink">
    <!-- Generator: Sketch 49.2 (51160) - http://www.bohemiancoding.com/sketch -->
    <title>share</title>
    <desc>Created with Sketch.</desc>
    <defs></defs>
    <g id="Page-1" stroke="none" stroke-width="1" fill="none" fill-rule="evenodd">
        <g id="share" fill="#1E1E1E" fill-rule="nonzero">
            <path d="M14.5823789,12.2063953 C13.484141,12.2063953 12.5048458,12.7271595 11.8784141,13.5319767 L6.63303965,10.6164867 C6.75594714,10.2653654 6.82334802,9.88662791 6.82334802,9.49605482 C6.82334802,9.10153654 6.75594714,8.72674419 6.62907489,8.37167774 L11.8704846,5.46013289 C12.4929515,6.26889535 13.4762115,6.79360465 14.5784141,6.79360465 C16.4577093,6.79360465 17.9920705,5.27076412 17.9920705,3.39680233 C17.9920705,1.52284053 16.461674,0 14.5784141,0 C12.6951542,0 11.1647577,1.52284053 11.1647577,3.39680233 C11.1647577,3.7913206 11.2321586,4.17005814 11.3590308,4.5211794 L6.1215859,7.43272425 C5.49911894,6.62001661 4.51585903,6.09925249 3.41365639,6.09925249 C1.53436123,6.09925249 0,7.62209302 0,9.49605482 C0,11.3700166 1.53436123,12.8928571 3.41762115,12.8928571 C4.51982379,12.8928571 5.5030837,12.3681478 6.12951542,11.5554402 L11.3709251,14.4709302 C11.2440529,14.8259967 11.1726872,15.2086794 11.1726872,15.6031977 C11.1726872,17.4732143 12.7030837,19 14.5863436,19 C16.4696035,19 18,17.4771595 18,15.6031977 C18,13.7292359 16.4656388,12.2063953 14.5823789,12.2063953 Z M14.5823789,1.06914452 C15.8748899,1.06914452 16.9255507,2.11461794 16.9255507,3.40074751 C16.9255507,4.68687708 15.8748899,5.7323505 14.5823789,5.7323505 C13.2898678,5.7323505 12.239207,4.68687708 12.239207,3.40074751 C12.239207,2.11461794 13.2938326,1.06914452 14.5823789,1.06914452 Z M3.41762115,11.8276578 C2.12511013,11.8276578 1.07444934,10.7821844 1.07444934,9.49605482 C1.07444934,8.20992525 2.12511013,7.16445183 3.41762115,7.16445183 C4.71013216,7.16445183 5.76079295,8.20992525 5.76079295,9.49605482 C5.76079295,10.7821844 4.7061674,11.8276578 3.41762115,11.8276578 Z M14.5823789,17.9308555 C13.2898678,17.9308555 12.239207,16.8853821 12.239207,15.5992525 C12.239207,14.3131229 13.2898678,13.2676495 14.5823789,13.2676495 C15.8748899,13.2676495 16.9255507,14.3131229 16.9255507,15.5992525 C16.9255507,16.8853821 15.8748899,17.9308555 14.5823789,17.9308555 Z" id="Shape"></path>
        </g>
    </g>
</svg>
